<?xml version="1.0" encoding="UTF-8" standalone="no"?>
<!-- Created with Inkscape (http://www.inkscape.org/) -->

<svg
   width="1024"
   height="1024"
   viewBox="0 0 270.93334 270.93333"
   version="1.1"
   id="svg5"
   xml:space="preserve"
   inkscape:version="1.2.2 (b0a8486541, 2022-12-01)"
   sodipodi:docname="inventree-import.svg"
   inkscape:export-filename="inventree-import.png"
   inkscape:export-xdpi="96"
   inkscape:export-ydpi="96"
   xmlns:inkscape="http://www.inkscape.org/namespaces/inkscape"
   xmlns:sodipodi="http://sodipodi.sourceforge.net/DTD/sodipodi-0.dtd"
   xmlns="http://www.w3.org/2000/svg"
   xmlns:svg="http://www.w3.org/2000/svg"><sodipodi:namedview
     id="namedview7"
     pagecolor="#ffffff"
     bordercolor="#000000"
     borderopacity="0.25"
     inkscape:showpageshadow="2"
     inkscape:pageopacity="0.0"
     inkscape:pagecheckerboard="0"
     inkscape:deskcolor="#d1d1d1"
     inkscape:document-units="mm"
     showgrid="false"
     inkscape:zoom="0.28283775"
     inkscape:cx="-1281.6535"
     inkscape:cy="334.11381"
     inkscape:window-width="2017"
     inkscape:window-height="1368"
     inkscape:window-x="0"
     inkscape:window-y="0"
     inkscape:window-maximized="0"
     inkscape:current-layer="layer1"
     inkscape:connector-spacing="3" /><defs
     id="defs2"><inkscape:path-effect
       effect="powerclip"
       id="path-effect7827"
       is_visible="true"
       lpeversion="1"
       inverse="true"
       flatten="false"
       hide_clip="false"
       message="Use fill-rule evenodd on &lt;b&gt;fill and stroke&lt;/b&gt; dialog if no flatten result after convert clip to paths." /><clipPath
       clipPathUnits="userSpaceOnUse"
       id="clipPath7823"><rect
         style="display:none;fill:#ffffff;fill-opacity:1;fill-rule:evenodd;stroke:#ff0000;stroke-width:7.97858;stroke-dasharray:none;stroke-opacity:1"
         id="rect7825"
         width="461.25809"
         height="240.00421"
         x="100.9975"
         y="282.57251" /><path
         id="lpe_path-effect7827"
         style="fill:#ffffff;fill-opacity:1;fill-rule:evenodd;stroke:#ff0000;stroke-width:7.97858;stroke-dasharray:none;stroke-opacity:1"
         class="powerclip"
         d="M -4.9997347,-4.9957588 H 517.0002 V 457.6388 H -4.9997347 Z M 100.9975,282.57251 V 522.57672 H 562.25558 V 282.57251 Z" /></clipPath></defs><g
     inkscape:label="Layer 1"
     inkscape:groupmode="layer"
     id="layer1"><path
       class="st0"
       d="m 128.03423,204.5759 c 11.42632,0 20.69072,9.26439 20.69072,20.69074 0,11.42632 -9.2644,20.69071 -20.69072,20.69071 -11.42635,0 -20.69074,-9.26439 -20.69074,-20.69071 0,-11.42635 9.26439,-20.69074 20.69074,-20.69074 z M 68.64924,175.01663 c 6.166112,2.06298 14.752993,3.33428 24.291433,3.33428 9.538437,0 18.125317,-1.2713 24.291437,-3.33428 5.41248,-1.80415 8.76196,-3.99655 8.76196,-6.13566 0,-2.13911 -3.34948,-4.3315 -8.76196,-6.13565 -6.16612,-2.05539 -14.753,-3.33429 -24.291437,-3.33429 -9.53844,0 -18.125321,1.27131 -24.291433,3.33429 -11.487235,3.83669 -11.806959,8.33564 0,12.27131 z m -8.716292,16.13085 c 0.4263,1.99447 3.676831,4.00417 8.716292,5.68653 6.166112,2.06298 14.752993,3.33425 24.291433,3.33425 9.538437,0 18.125317,-1.27127 24.291437,-3.33425 5.41248,-1.80415 8.76196,-3.99655 8.76196,-6.13566 h 0.023 v -14.69209 c -1.92594,1.31696 -4.40001,2.48166 -7.30035,3.44844 -6.6457,2.21524 -15.76546,3.59309 -25.775877,3.59309 -10.01802,0 -19.130168,-1.37025 -25.775864,-3.59309 -2.869799,-0.95915 -5.313408,-2.10104 -7.22414,-3.40278 v 15.09556 z m 80.106142,31.80495 v 4.62077 c 0,0.94397 -0.76883,1.71283 -1.7128,1.71283 h -6.27267 v 6.27267 c 0,0.94397 -0.76886,1.7128 -1.71283,1.7128 h -4.62077 c -0.94394,0 -1.7128,-0.76883 -1.7128,-1.7128 v -6.27267 h -6.2727 c -0.94394,0 -1.7128,-0.76886 -1.7128,-1.71283 v -4.62077 c 0,-0.94394 0.76886,-1.7128 1.7128,-1.7128 h 6.2727 v -6.2727 c 0,-0.94394 0.76886,-1.7128 1.7128,-1.7128 h 4.62077 c 0.94397,0 1.71283,0.76886 1.71283,1.7128 v 6.2727 h 6.27267 c 0.94397,0 1.7128,0.77645 1.7128,1.7128 z m -36.66932,2.20761 c -3.31143,0.33496 -6.813167,0.51004 -10.429097,0.51004 -10.01803,0 -19.130169,-1.37025 -25.775865,-3.59309 -2.869906,-0.95915 -5.313514,-2.10104 -7.224247,-3.40278 v 14.07549 c 0.4263,1.99447 3.676831,4.00417 8.716292,5.68653 6.166112,2.05536 14.75299,3.33425 24.29143,3.33425 5.72459,0 11.098997,-0.45674 15.818737,-1.27127 1.18755,1.47682 2.53496,2.81663 4.02702,3.98892 -5.73221,1.25609 -12.553,1.97926 -19.845757,1.97926 -10.01802,0 -19.130166,-1.37025 -25.775862,-3.59308 -3.501744,-1.17233 -11.928762,-5.00902 -11.928762,-9.60695 0,-0.54051 0,-0.98963 0,-1.50729 -0.01525,-20.94954 -0.06091,-41.91433 -0.06091,-62.8791 0,-4.38479 4.575103,-8.10728 11.974436,-10.58135 6.645699,-2.21524 15.765458,-3.58549 25.783478,-3.58549 10.018027,0 19.130167,1.37025 25.775857,3.59311 6.73704,2.24568 11.12946,5.53427 11.86788,9.41663 0.0915,0.24369 0.13695,0.51003 0.13695,0.7917 v 32.25408 c -0.91349,-0.10646 -1.84224,-0.15997 -2.78618,-0.15997 -0.64704,0 -1.2789,0.023 -1.91072,0.0762 v -2.84706 c -1.92597,1.31696 -4.40001,2.48166 -7.30039,3.44847 -6.64569,2.21521 -15.76544,3.59309 -25.775857,3.59309 -10.01802,0 -19.130168,-1.37025 -25.775864,-3.59309 -2.869905,-0.95918 -5.313514,-2.10104 -7.224247,-3.40278 v 14.07546 c 0.4263,1.99448 3.676828,4.00417 8.716293,5.68653 6.166111,2.05539 14.752988,3.33428 24.291438,3.33428 3.81385,0 7.475447,-0.20542 10.893457,-0.57856 -0.31973,1.53013 -0.47959,3.12873 -0.47959,4.75781 z"
       id="path26"
       style="stroke-width:0.761247;fill:#0f52ba;fill-opacity:1" /><g
       id="g1895"
       transform="translate(39.688196,5.6224944)"
       style="fill:#0f52ba;fill-opacity:1"><path
         class="st0"
         d="M 34.788644,76.213693 H 91.611417 V 58.995202 H 73.508354 c -1.900515,0 -4.545469,-1.024703 -5.797887,-2.277116 -1.252412,-1.252413 -2.014368,-3.512011 -2.014368,-5.403768 v -18.330773 0 H 19.698383 c -0.15763,0 -0.280271,0.07881 -0.359086,0.157663 -0.131381,0.08759 -0.166402,0.201423 -0.166402,0.367841 v 93.230331 c 0,0.12261 0.07881,0.28027 0.157663,0.35909 0.07881,0.12261 0.245217,0.15766 0.359086,0.15766 19.951027,0 50.875993,0 71.387544,0 0.157668,0 0.148894,-0.0788 0.236479,-0.15766 0.122611,-0.0788 0.289008,-0.24522 0.289008,-0.35909 v -9.77408 h -56.81401 c -3.625868,0 -6.62115,-2.97776 -6.62115,-6.62115 V 82.8261 c 0,-3.634627 2.977768,-6.612394 6.62115,-6.612394 z m 17.954173,22.201863 5.508866,1.664044 c -0.367842,1.54144 -0.954634,2.83764 -1.751625,3.8711 -0.79699,1.03346 -1.7779,1.82169 -2.96025,2.34718 -1.182346,0.52548 -2.679989,0.78823 -4.50168,0.78823 -2.215808,0 -4.019982,-0.32406 -5.421285,-0.96339 -1.4013,-0.64811 -2.609922,-1.7779 -3.625867,-3.3894 -1.015942,-1.6115 -1.532671,-3.687175 -1.532671,-6.209518 0,-3.363122 0.89333,-5.946773 2.679989,-7.750948 1.795415,-1.804175 4.326516,-2.706262 7.602056,-2.706262 2.557377,0 4.580504,0.516732 6.043112,1.550192 1.462611,1.033459 2.557377,2.627438 3.266784,4.773181 l -5.535138,1.226139 C 52.322424,93.003038 52.12099,92.547607 51.902036,92.267348 51.542954,91.785653 51.113804,91.417814 50.605834,91.163825 50.097863,90.901094 49.528582,90.77847 48.897996,90.77847 c -1.427573,0 -2.522342,0.569274 -3.284299,1.71659 -0.569277,0.84954 -0.858294,2.180781 -0.858294,3.99371 0,2.250838 0.341565,3.79227 1.0247,4.63305 0.683134,0.83202 1.646527,1.25242 2.890184,1.25242 1.199864,0 2.110711,-0.33281 2.723779,-1.01595 0.630586,-0.68313 1.068493,-1.655286 1.348751,-2.942734 z m 7.523238,1.593984 5.96429,-0.376599 c 0.13138,0.963399 0.394115,1.707839 0.788232,2.207049 0.6481,0.82327 1.567708,1.2349 2.776326,1.2349 0.893333,0 1.585224,-0.2102 2.066919,-0.63059 0.490455,-0.42039 0.726929,-0.91084 0.726929,-1.46261 0,-0.52549 -0.227706,-0.998426 -0.683137,-1.418812 -0.455424,-0.420393 -1.53267,-0.805754 -3.205473,-1.182354 -2.758816,-0.613066 -4.71188,-1.436329 -5.885468,-2.469789 -1.18235,-1.024704 -1.777904,-2.329668 -1.777904,-3.923647 0,-1.042214 0.306554,-2.023126 0.910847,-2.95149 0.604313,-0.928358 1.515157,-1.664042 2.732538,-2.18953 1.217381,-0.534248 2.881425,-0.796992 5.000893,-0.796992 2.601167,0 4.580507,0.481701 5.938018,1.453852 1.366267,0.963396 2.172014,2.50482 2.434758,4.615532 l -5.911742,0.350329 c -0.157661,-0.919603 -0.490456,-1.593985 -0.989666,-2.014371 -0.507972,-0.420393 -1.199863,-0.630589 -2.084435,-0.630589 -0.726929,0 -1.278688,0.157668 -1.655288,0.464185 -0.367842,0.306518 -0.551761,0.68313 -0.551761,1.1298 0,0.324065 0.148891,0.613067 0.446663,0.867049 0.28901,0.271505 0.989671,0.516733 2.093193,0.744445 2.750055,0.595551 4.711879,1.191102 5.894226,1.79542 1.191102,0.604306 2.058164,1.357506 2.592406,2.250838 0.543004,0.893327 0.805747,1.900516 0.805747,3.012804 0,1.30495 -0.359084,2.50482 -1.077245,3.60835 -0.726929,1.09476 -1.725357,1.93554 -3.02156,2.50482 -1.296203,0.56928 -2.925214,0.84954 -4.887037,0.84954 -3.459465,0 -5.850433,-0.66562 -7.181671,-1.99685 -1.331238,-1.30497 -2.084435,-2.99529 -2.259598,-5.04469 z M 79.919306,86.399399 h 6.568601 l 4.580507,14.634851 4.519192,-14.634851 h 6.375924 L 94.41402,106.73578 H 87.608952 Z M 98.206289,76.213693 h 8.696831 c 3.64338,0 6.62115,2.986522 6.62115,6.621149 V 110.3529 c 0,3.63462 -2.98653,6.62114 -6.62115,6.62114 h -8.696831 v 11.86727 c 0,1.41007 -0.56928,2.66248 -1.488883,3.59084 -0.928358,0.92836 -2.180775,1.48889 -3.590834,1.48889 -25.783946,0 -49.562277,0 -75.477592,0 -1.410062,0 -2.662475,-0.56053 -3.590836,-1.48889 -0.928361,-0.92836 -1.488884,-2.18077 -1.488884,-3.59084 V 31.415836 c 0,-1.410059 0.569278,-2.662472 1.488884,-3.590833 0.928361,-0.928364 2.215808,-1.488883 3.590836,-1.488883 h 51.427755 c 0.113869,-0.04379 0.236479,-0.04379 0.35909,-0.04379 0.560519,0 1.129793,0.245217 1.53267,0.604313 h 0.07881 c 0.07882,0.04379 0.122611,0.07881 0.201423,0.157663 L 97.514371,53.644 c 0.446669,0.446663 0.770715,1.050975 0.770715,1.73411 0,0.201423 -0.04377,0.359083 -0.07881,0.569278 V 76.213706 Z M 71.695418,50.78883 V 34.122101 L 90.464096,53.12725 H 74.033842 c -0.648105,0 -1.208624,-0.280271 -1.655288,-0.683135 -0.402876,-0.402873 -0.683136,-1.007185 -0.683136,-1.655285 z"
         id="path40"
         style="stroke-width:0.875811;fill:#0f52ba;fill-opacity:1" /><path
         fill="#000000"
         fill-rule="nonzero"
         d="m 30.528025,41.426789 h 17.682549 c 0.669291,0 1.277618,0.274344 1.717627,0.714353 l 0.03711,0.04108 c 0.419467,0.437359 0.678569,1.030444 0.678569,1.677205 v 17.913156 c 0,0.665316 -0.275006,1.272979 -0.715678,1.714314 l -0.0027,0.0027 c -0.441334,0.440672 -1.048998,0.715678 -1.714976,0.715678 H 30.528025 c -0.665978,0 -1.274305,-0.274343 -1.71564,-0.715015 -0.44266,-0.440673 -0.717666,-1.048999 -0.717666,-1.717628 v -17.9132 c 0,-0.669291 0.273681,-1.27828 0.714353,-1.71829 l 0.04042,-0.03711 c 0.437358,-0.418804 1.029781,-0.677244 1.67853,-0.677244 z m 2.946208,11.130782 c 0.518866,0 0.991346,0.21139 1.333944,0.553325 l 0.0027,0.0027 c 0.342597,0.343923 0.553325,0.81574 0.553325,1.333944 0,0.520855 -0.21139,0.993997 -0.553325,1.335932 l -0.03578,0.03313 c -0.186872,0.176931 -0.409527,0.316753 -0.655376,0.406213 v 2.778554 h 6.472248 c 0.319404,0 0.578506,0.258439 0.578506,0.577844 v 3.344469 h 7.040152 c 0.314765,0 0.603025,-0.129882 0.812427,-0.338622 0.209402,-0.210064 0.339284,-0.498324 0.339284,-0.812427 V 43.859432 c 0,-0.302175 -0.119279,-0.579832 -0.312778,-0.786583 l -0.02717,-0.02584 c -0.208739,-0.20874 -0.496336,-0.338622 -0.811764,-0.338622 h -1.642084 v 9.19315 c 0,0.319404 -0.258439,0.578506 -0.578506,0.578506 h -2.534031 c -0.09079,0.304163 -0.257114,0.577844 -0.476456,0.797186 -0.340609,0.34326 -0.813752,0.555313 -1.335269,0.555313 -0.518204,0 -0.990684,-0.212053 -1.333282,-0.553988 l -0.0027,-0.002 c -0.342597,-0.343923 -0.553325,-0.81574 -0.553325,-1.333944 0,-0.521517 0.21139,-0.99466 0.553325,-1.336595 0.341935,-0.341273 0.815078,-0.553325 1.335933,-0.553325 0.521517,0 0.99466,0.212052 1.336595,0.553988 l 0.03247,0.03578 c 0.183558,0.193499 0.327357,0.424769 0.416154,0.680557 h 1.982693 V 42.708383 H 30.528025 c -0.303501,0 -0.581157,0.118617 -0.787909,0.311453 l -0.02518,0.02717 c -0.208739,0.208739 -0.338622,0.496999 -0.338622,0.812427 v 2.323966 h 10.034071 v -0.414166 c 0,-0.230607 0.0941,-0.440009 0.245186,-0.591097 0.151088,-0.151088 0.361153,-0.245186 0.591097,-0.245186 h 1.968778 c 0.230607,0 0.440009,0.0941 0.591097,0.245186 0.150425,0.151088 0.245186,0.36049 0.245186,0.591097 v 1.984681 c 0,0.229945 -0.09476,0.44001 -0.245186,0.590435 -0.151088,0.151087 -0.36049,0.245186 -0.591097,0.245186 h -1.968778 c -0.229944,0 -0.440009,-0.0941 -0.591097,-0.245186 -0.151087,-0.150425 -0.245186,-0.36049 -0.245186,-0.590435 V 47.339748 H 29.376313 v 2.5115 h 8.042101 c 0.319404,0 0.578506,0.259102 0.578506,0.578506 v 5.685664 h 5.120412 v -0.571879 c 0,-0.239222 0.09807,-0.457239 0.254463,-0.613628 0.157051,-0.157052 0.375068,-0.255126 0.61429,-0.255126 h 2.185469 c 0.239885,0 0.457239,0.09807 0.61429,0.255126 0.156389,0.156389 0.254464,0.374406 0.254464,0.613628 v 2.202698 c 0,0.239884 -0.09807,0.457238 -0.254464,0.61429 -0.157051,0.157052 -0.374405,0.255126 -0.61429,0.255126 h -2.185469 c -0.239222,0 -0.457239,-0.09807 -0.61429,-0.255126 -0.156389,-0.157052 -0.254463,-0.374406 -0.254463,-0.61429 v -0.473806 h -5.698918 c -0.319405,0 -0.578507,-0.259102 -0.578507,-0.578506 v -5.686327 h -7.463594 v 10.76499 c 0,0.314766 0.130545,0.603025 0.339285,0.811765 0.208739,0.209402 0.496998,0.339284 0.812427,0.339284 h 9.485384 v -2.765963 h -6.471584 c -0.319405,0 -0.578507,-0.259102 -0.578507,-0.578506 v -3.311999 c -0.316091,-0.0888 -0.599049,-0.257777 -0.825018,-0.483746 -0.341935,-0.341935 -0.553325,-0.815077 -0.553325,-1.335932 0,-0.519529 0.212053,-0.992672 0.554651,-1.33527 0.340609,-0.34326 0.813089,-0.55465 1.334607,-0.55465 z m 0.577181,1.310088 c -0.145786,-0.145786 -0.349887,-0.236571 -0.577181,-0.236571 -0.225306,0 -0.429407,0.09145 -0.577181,0.239222 -0.148437,0.145786 -0.23856,0.349887 -0.23856,0.577181 0,0.225306 0.09145,0.429407 0.23856,0.577181 0.147774,0.147112 0.351875,0.238559 0.577181,0.238559 0.216028,0 0.410852,-0.08151 0.555313,-0.215366 l 0.02187,-0.02319 c 0.147774,-0.147774 0.239222,-0.351875 0.239222,-0.577181 0,-0.227294 -0.09079,-0.431395 -0.236572,-0.577181 z m 11.915376,1.880643 h -1.775941 v 1.793171 h 1.775941 z m -3.745381,-4.382865 c -0.147112,-0.147112 -0.351213,-0.23856 -0.577181,-0.23856 -0.225306,0 -0.429407,0.09079 -0.576519,0.23856 -0.147774,0.147111 -0.239222,0.351875 -0.239222,0.577181 0,0.226631 0.09079,0.430732 0.236572,0.577181 l 0.0027,0.002 c 0.145787,0.146449 0.349887,0.236571 0.576519,0.236571 0.225968,0 0.430069,-0.09145 0.577181,-0.238559 0.127894,-0.125906 0.212715,-0.294223 0.23392,-0.483083 -0.0099,-0.04374 -0.0159,-0.0888 -0.0159,-0.135183 0,-0.03446 0.0033,-0.06826 0.0093,-0.101388 -0.02783,-0.158377 -0.100063,-0.30085 -0.203438,-0.412178 z m -0.243861,-5.358971 h -1.493646 v 1.509551 h 1.493646 z M 22.405079,58.772042 v 2.022453 c 0,0.208077 0.170305,0.378382 0.378382,0.378382 h 2.971389 c 0.208077,0 0.378381,-0.170305 0.378381,-0.378382 v -2.022453 c 0,-0.208077 -0.170304,-0.378382 -0.378381,-0.378382 h -2.971389 c -0.208077,0 -0.378382,0.170305 -0.378382,0.378382 z m 0,-4.644618 v 2.022453 c 0,0.208077 0.170305,0.378382 0.378382,0.378382 h 2.971389 c 0.208077,0 0.378381,-0.170305 0.378381,-0.378382 v -2.022453 c 0,-0.208077 -0.170304,-0.378382 -0.378381,-0.378382 h -2.971389 c -0.208077,0 -0.378382,0.170305 -0.378382,0.378382 z m 0,-4.644618 v 2.022453 c 0,0.208077 0.170305,0.378382 0.378382,0.378382 h 2.971389 c 0.208077,0 0.378381,-0.170305 0.378381,-0.378382 v -2.022453 c 0,-0.208077 -0.170304,-0.378382 -0.378381,-0.378382 h -2.971389 c -0.208077,0 -0.378382,0.170305 -0.378382,0.378382 z m 0,-4.644618 v 2.022453 c 0,0.208077 0.170305,0.378382 0.378382,0.378382 h 2.971389 c 0.208077,0 0.378381,-0.170305 0.378381,-0.378382 v -2.022453 c 0,-0.208077 -0.170304,-0.378382 -0.378381,-0.378382 h -2.971389 c -0.208077,0 -0.378382,0.170305 -0.378382,0.378382 z m 33.92844,13.933854 v 2.022453 c 0,0.208077 -0.170304,0.378382 -0.378381,0.378382 h -2.972052 c -0.207414,0 -0.377719,-0.170305 -0.377719,-0.378382 v -2.022453 c 0,-0.208077 0.170305,-0.378382 0.377719,-0.378382 h 2.972052 c 0.208077,0 0.378381,0.170305 0.378381,0.378382 z m 0,-4.644618 v 2.022453 c 0,0.208077 -0.170304,0.378382 -0.378381,0.378382 h -2.972052 c -0.207414,0 -0.377719,-0.170305 -0.377719,-0.378382 v -2.022453 c 0,-0.208077 0.170305,-0.378382 0.377719,-0.378382 h 2.972052 c 0.208077,0 0.378381,0.170305 0.378381,0.378382 z m 0,-4.644618 v 2.022453 c 0,0.208077 -0.170304,0.378382 -0.378381,0.378382 h -2.972052 c -0.207414,0 -0.377719,-0.170305 -0.377719,-0.378382 v -2.022453 c 0,-0.208077 0.170305,-0.378382 0.377719,-0.378382 h 2.972052 c 0.208077,0 0.378381,0.170305 0.378381,0.378382 z m 0,-4.644618 v 2.022453 c 0,0.208077 -0.170304,0.378382 -0.378381,0.378382 h -2.972052 c -0.207414,0 -0.377719,-0.170305 -0.377719,-0.378382 v -2.022453 c 0,-0.208077 0.170305,-0.378382 0.377719,-0.378382 h 2.972052 c 0.208077,0 0.378381,0.170305 0.378381,0.378382 z M 45.324668,69.675529 h 2.022453 c 0.208077,0 0.378382,-0.170305 0.378382,-0.378381 v -2.971389 c 0,-0.208077 -0.170305,-0.378382 -0.378382,-0.378382 h -2.022453 c -0.208077,0 -0.378381,0.170305 -0.378381,0.378382 v 2.971389 c 0,0.208076 0.170304,0.378381 0.378381,0.378381 z m -4.643955,0 h 2.022453 c 0.208077,0 0.377719,-0.170305 0.377719,-0.378381 v -2.971389 c 0,-0.208077 -0.169642,-0.378382 -0.377719,-0.378382 h -2.022453 c -0.208077,0 -0.378382,0.170305 -0.378382,0.378382 v 2.971389 c 0,0.208076 0.170305,0.378381 0.378382,0.378381 z m -4.644618,0 h 2.022453 c 0.207414,0 0.377719,-0.170305 0.377719,-0.378381 v -2.971389 c 0,-0.208077 -0.170305,-0.378382 -0.377719,-0.378382 h -2.022453 c -0.208077,0 -0.378382,0.170305 -0.378382,0.378382 v 2.971389 c 0,0.208076 0.170305,0.378381 0.378382,0.378381 z m -4.644618,0 h 2.022453 c 0.208077,0 0.377719,-0.170305 0.377719,-0.378381 v -2.971389 c 0,-0.208077 -0.169642,-0.378382 -0.377719,-0.378382 h -2.022453 c -0.208077,0 -0.378382,0.170305 -0.378382,0.378382 v 2.971389 c 0,0.208076 0.170305,0.378381 0.378382,0.378381 z M 45.324668,35.956491 h 2.022453 c 0.208077,0 0.378382,0.170305 0.378382,0.378382 v 2.972051 c 0,0.207415 -0.170305,0.377719 -0.378382,0.377719 h -2.022453 c -0.208077,0 -0.378381,-0.170304 -0.378381,-0.377719 v -2.972051 c 0,-0.208077 0.170304,-0.378382 0.378381,-0.378382 z m -4.643955,0 h 2.022453 c 0.208077,0 0.377719,0.170305 0.377719,0.378382 v 2.972051 c 0,0.207415 -0.169642,0.377719 -0.377719,0.377719 h -2.022453 c -0.208077,0 -0.378382,-0.170304 -0.378382,-0.377719 v -2.972051 c 0,-0.208077 0.170305,-0.378382 0.378382,-0.378382 z m -4.644618,0 h 2.022453 c 0.207414,0 0.377719,0.170305 0.377719,0.378382 v 2.972051 c 0,0.207415 -0.170305,0.377719 -0.377719,0.377719 h -2.022453 c -0.208077,0 -0.378382,-0.170304 -0.378382,-0.377719 v -2.972051 c 0,-0.208077 0.170305,-0.378382 0.378382,-0.378382 z m -4.644618,0 h 2.022453 c 0.208077,0 0.377719,0.170305 0.377719,0.378382 v 2.972051 c 0,0.207415 -0.169642,0.377719 -0.377719,0.377719 h -2.022453 c -0.208077,0 -0.378382,-0.170304 -0.378382,-0.377719 v -2.972051 c 0,-0.208077 0.170305,-0.378382 0.378382,-0.378382 z"
         id="path10"
         style="clip-rule:evenodd;fill:#0f52ba;fill-opacity:1;fill-rule:evenodd;stroke-width:0.0662665;image-rendering:optimizeQuality;shape-rendering:geometricPrecision;text-rendering:geometricPrecision" /><rect
         style="fill:#0f52ba;stroke-width:0.167126;fill-opacity:1"
         id="rect314"
         width="72.236191"
         height="27.624065"
         x="36.390099"
         y="84.284363" /><text
         xml:space="preserve"
         style="font-size:30.5888px;fill:#ffffff;fill-opacity:1;stroke-width:2.55308;stroke-dasharray:none"
         x="36.556652"
         y="107.04911"
         id="text372"><tspan
           sodipodi:role="line"
           style="fill:#ffffff;fill-opacity:1;stroke-width:2.55308;stroke-dasharray:none"
           x="36.556652"
           y="107.04911"
           id="tspan1157">BOM</tspan></text></g><g
       id="g7955"
       transform="matrix(0.90924322,0.06055678,-0.06494233,0.99788339,21.017617,-17.56737)"
       style="fill:#0f52ba;fill-opacity:1"><g
         style="clip-rule:evenodd;fill-rule:evenodd;image-rendering:optimizeQuality;shape-rendering:geometricPrecision;text-rendering:geometricPrecision;fill:#0f52ba;fill-opacity:1"
         id="g6560"
         transform="matrix(0.03451634,-0.26232224,-0.26232224,-0.03451634,236.66162,227.74374)"
         clip-path="url(#clipPath7823)"
         inkscape:path-effect="#path-effect7827"><path
           d="m 143.65,161.02 c 33.05,-59.34 90.64,-98.27 164.75,-89.98 69.06,7.72 131.91,57.64 147.19,131.68 12.78,62 -10.79,121.11 -52.63,161.1 -48.87,46.7 -122.66,67.32 -192.61,36.01 -35.84,-16.05 -60.23,-36.5 -78.47,-62.84 -1.86,-2.45 -4.36,-6.41 -7.83,-8.99 -10.07,-7.53 -23.32,1.41 -21.28,12.43 0.43,2.36 1.49,4.88 3.36,7.53 15,23.71 31.64,41.83 53.38,58.4 49.84,37.98 114.27,55.13 178.92,41.8 60.23,-12.41 109.18,-48.92 139.51,-97.8 C 530.98,264.9 518.89,162.04 463.68,89.93 429.39,45.14 378.46,12.21 316.18,2.67 211.03,-13.44 105.47,44.94 71.66,137.99 l -42.51,-13.6 c -11.78,-3.73 -24.37,2.79 -28.1,14.57 a 22.326,22.326 0 0 0 0.9,15.89 l 48.64,108.53 c 5.04,11.3 18.29,16.37 29.59,11.32 l 1.65,-0.82 0.02,0.03 106.62,-58.84 c 10.86,-5.97 14.83,-19.61 8.87,-30.47 -3.15,-5.74 -8.44,-9.55 -14.34,-11 z"
           id="path6551"
           inkscape:original-d="m 143.65,161.02 c 33.05,-59.34 90.64,-98.27 164.75,-89.98 69.06,7.72 131.91,57.64 147.19,131.68 12.78,62 -10.79,121.11 -52.63,161.1 -48.87,46.7 -122.66,67.32 -192.61,36.01 -35.84,-16.05 -60.23,-36.5 -78.47,-62.84 -1.86,-2.45 -4.36,-6.41 -7.83,-8.99 -10.07,-7.53 -23.32,1.41 -21.28,12.43 0.43,2.36 1.49,4.88 3.36,7.53 15,23.71 31.64,41.83 53.38,58.4 49.84,37.98 114.27,55.13 178.92,41.8 60.23,-12.41 109.18,-48.92 139.51,-97.8 C 530.98,264.9 518.89,162.04 463.68,89.93 429.39,45.14 378.46,12.21 316.18,2.67 211.03,-13.44 105.47,44.94 71.66,137.99 l -42.51,-13.6 c -11.78,-3.73 -24.37,2.79 -28.1,14.57 a 22.326,22.326 0 0 0 0.9,15.89 l 48.64,108.53 c 5.04,11.3 18.29,16.37 29.59,11.32 l 1.65,-0.82 0.02,0.03 106.62,-58.84 c 10.86,-5.97 14.83,-19.61 8.87,-30.47 -3.15,-5.74 -8.44,-9.55 -14.34,-11 z"
           style="fill:#0f52ba;fill-opacity:1" /></g><ellipse
         style="fill:#0f52ba;fill-opacity:1;fill-rule:evenodd;stroke:#0f52ba;stroke-width:2.03674;stroke-dasharray:none;stroke-opacity:1"
         id="path7883"
         cx="148.75218"
         cy="134.875"
         rx="8.4899702"
         ry="5.8049364"
         transform="matrix(0.96678473,-0.25559201,0.25912448,0.96584393,0,0)" /></g></g><style
     type="text/css"
     id="style24">.st0{fill-rule:evenodd;clip-rule:evenodd;}</style><style
     type="text/css"
     id="style38">.st0{fill-rule:evenodd;clip-rule:evenodd;}</style><style
     type="text/css"
     id="style1976">.st0{fill-rule:evenodd;clip-rule:evenodd;}</style></svg>
